<svg xmlns="http://www.w3.org/2000/svg" viewBox="0 0 18 30.46"><path d="M188,65.77a4.84,4.84,0,0,0-3.39,8.31h-1.35A4.26,4.26,0,0,0,179,78.34v7.19a4.18,4.18,0,0,0,4.15,3.85v4.11a2.46,2.46,0,0,0,2.51,2.74h4.68a2.46,2.46,0,0,0,2.51-2.74V89.38A4.18,4.18,0,0,0,197,85.53V78.34a4.26,4.26,0,0,0-4.26-4.26h-1.35A4.84,4.84,0,0,0,188,65.77Zm0,8.31a3.47,3.47,0,1,1,3.46-3.46A3.47,3.47,0,0,1,188,74.08ZM183.15,88a2.82,2.82,0,0,1-2.77-2.47V78.34a2.88,2.88,0,0,1,2.88-2.88h9.48a2.88,2.88,0,0,1,2.88,2.88v7.19A2.82,2.82,0,0,1,192.85,88V83.77a.7.7,0,0,0-1.39,0v9.72c0,1.36-.85,1.36-1.12,1.36h-1.65V87.92a.69.69,0,0,0-1.38,0v6.93h-1.65c-.27,0-1.12,0-1.12-1.36V83.77a.7.7,0,0,0-1.39,0V88Z" transform="translate(-179 -65.77)" fill="currentColor"/></svg>