<svg xmlns="http://www.w3.org/2000/svg" viewBox="0 0 21.6 21.6"><path d="M106.13,119.14a.75.75,0,0,0,0,1.06l2.48,2.47-2.48,2.48a.75.75,0,1,0,1.06,1.06l2.48-2.48,2.47,2.48a.75.75,0,0,0,1.06,0,.74.74,0,0,0,0-1.06l-2.47-2.48,2.47-2.47a.74.74,0,0,0,0-1.06.75.75,0,0,0-1.06,0l-2.47,2.47-2.48-2.47a.75.75,0,0,0-1.06,0Z" transform="translate(-98.87 -111.87)" fill="currentColor"/><path d="M109.67,113.27a9.4,9.4,0,1,1-9.4,9.4,9.41,9.41,0,0,1,9.4-9.4m0-1.4a10.8,10.8,0,1,0,10.8,10.8,10.8,10.8,0,0,0-10.8-10.8Z" transform="translate(-98.87 -111.87)" fill="currentColor"/></svg>