<svg xmlns="http://www.w3.org/2000/svg" viewBox="0 0 28.53 26.45"><circle cx="12.15" cy="23.38" r="2.37" fill="none" stroke="currentColor" stroke-linecap="round" stroke-linejoin="round" stroke-width="1.4"/><circle cx="21.27" cy="23.38" r="2.37" fill="none" stroke="currentColor" stroke-linecap="round" stroke-linejoin="round" stroke-width="1.4"/><polyline points="0.7 0.7 4.96 0.7 9.72 18.02 24.54 18.02 27.83 5.83 11.43 5.83" fill="none" stroke="currentColor" stroke-linecap="round" stroke-linejoin="round" stroke-width="1.4"/><path d="M291.13,77.62a.69.69,0,0,0-1,0l-4.8,4.79L283,80.08a.71.71,0,0,0-1,0,.69.69,0,0,0,0,1l2.82,2.83a.71.71,0,0,0,1,0l5.29-5.29A.71.71,0,0,0,291.13,77.62Z" transform="translate(-268.17 -69.1)" fill="currentColor" /></svg>