<svg xmlns="http://www.w3.org/2000/svg" viewBox="0 0 20 22.82"><path d="M220.57,20.42v10.9A1.52,1.52,0,0,1,219,32.84H206.9a1.53,1.53,0,0,1-1.53-1.52V20.42h15.2M222,19H204v12.3a2.93,2.93,0,0,0,2.93,2.92H219A2.93,2.93,0,0,0,222,31.32V19Z" transform="translate(-202.97 -11.43)" fill="currentColor"/><path d="M214.71,12.83a1.91,1.91,0,0,1,1.91,1.9v1.14h-7.3V14.73a1.91,1.91,0,0,1,1.91-1.9h3.48m0-1.4h-3.48a3.31,3.31,0,0,0-3.31,3.3v2.54H218V14.73a3.31,3.31,0,0,0-3.31-3.3Z" transform="translate(-202.97 -11.43)" fill="currentColor"/><path d="M222.27,15.87h-18.6a.7.7,0,0,0,0,1.4h18.6a.7.7,0,1,0,0-1.4Z" transform="translate(-202.97 -11.43)" fill="currentColor"/><path d="M208.62,23.17a.71.71,0,0,0-.7.7v5.52a.7.7,0,0,0,1.4,0V23.87a.7.7,0,0,0-.7-.7Z" transform="translate(-202.97 -11.43)" fill="currentColor"/></svg>