<svg xmlns="http://www.w3.org/2000/svg" viewBox="0 0 23 24.58"><path d="M180.73,115.55h-5.51a.7.7,0,0,0-.7.7h0a.7.7,0,0,0,.7.7h5.51a.7.7,0,0,0,.7-.7h0a.7.7,0,0,0-.7-.7Z" transform="translate(-170.88 -111.87)" fill="currentColor"/><path d="M180.73,119.07h-5.51a.7.7,0,1,0,0,1.4h5.51a.7.7,0,1,0,0-1.4Z" transform="translate(-170.88 -111.87)" fill="currentColor"/><path d="M180.73,122.59h-5.51a.7.7,0,0,0,0,1.4h5.51a.7.7,0,1,0,0-1.4Z" transform="translate(-170.88 -111.87)" fill="currentColor"/><path d="M193.29,124.13l-1.42-1.41a2,2,0,0,0-2.82,0l-8.17,8.17-1.33,1.32v3.54a.7.7,0,0,0,.7.7h3.55l1.32-1.32,8.17-8.17A2,2,0,0,0,193.29,124.13Zm-2.41-.42,1.42,1.41a.61.61,0,0,1,0,.85l-1.37,1.37-2.26-2.27,1.37-1.36A.58.58,0,0,1,190.88,123.71ZM181,135.05v-2.26l6.73-6.73,2.26,2.27-6.72,6.72Z" transform="translate(-170.88 -111.87)" fill="currentColor"/><path d="M172.88,132.07a.6.6,0,0,1-.6-.6v-17.6a.6.6,0,0,1,.6-.6h16a.6.6,0,0,1,.6.6v7.44a3,3,0,0,1,1.4-.14v-7.3a2,2,0,0,0-2-2h-16a2,2,0,0,0-2,2v17.6a2,2,0,0,0,2,2h5.67v-1.4Z" transform="translate(-170.88 -111.87)" fill="currentColor"/></svg>