<svg xmlns="http://www.w3.org/2000/svg" viewBox="0 0 10.49 8.4"><path d="M187.63,74.94s0,0,0,0a.45.45,0,0,1-.17.11h0l-.1,0h0l-.1,0h0A.45.45,0,0,1,187,75v0l-.45-.41-3.89,3.58a.88.88,0,0,0,.33.06h8.44a.87.87,0,0,0,.32-.06L188,74.64Z" transform="translate(-181.93 -69.77)" fill="currentColor"/><path d="M182,70.38a1,1,0,0,0-.09.42v6.34a1.23,1.23,0,0,0,.07.39L185.89,74Z" transform="translate(-181.93 -69.77)" fill="currentColor"/><path d="M191.85,69.89a1,1,0,0,0-.45-.12H183a.93.93,0,0,0-.29,0l4.63,4.26Z" transform="translate(-181.93 -69.77)" fill="currentColor"/><path d="M192.39,70.56l-3.8,3.5,3.76,3.47a1,1,0,0,0,.07-.39V70.8A1,1,0,0,0,192.39,70.56Z" transform="translate(-181.93 -69.77)" fill="currentColor"/></svg>