<svg xmlns="http://www.w3.org/2000/svg" viewBox="0 0 20 18.57"><path d="M217.62,43.34a4.76,4.76,0,0,1,2.21.52,5.21,5.21,0,0,1,2.46,3.31,5.31,5.31,0,0,1-.66,4.21l-.1.14-.05.09,0,0c-.58.89-3.56,3.64-7.59,7-4-3.39-7-6.14-7.59-7l0,0-.06-.09a1.1,1.1,0,0,0-.09-.14,5.35,5.35,0,0,1-.67-4.21,5.25,5.25,0,0,1,2.47-3.31,4.76,4.76,0,0,1,2.21-.52,7.4,7.4,0,0,1,3.13.79,1.36,1.36,0,0,0,1.24,0,7.36,7.36,0,0,1,3.13-.79m0-1.4a8.63,8.63,0,0,0-3.75.94,8.63,8.63,0,0,0-3.75-.94,6.18,6.18,0,0,0-2.84.67,6.6,6.6,0,0,0-3.19,4.21A6.71,6.71,0,0,0,205,52.3l0-.06.06.09,0,0c.92,1.56,7,6.66,8.84,8.21h0c1.86-1.55,7.92-6.65,8.83-8.21l0,0,.06-.09a.21.21,0,0,1,0,.06,6.72,6.72,0,0,0,1-5.48,6.6,6.6,0,0,0-3.19-4.21,6.18,6.18,0,0,0-2.84-.67Z" transform="translate(-203.87 -41.94)" fill="currentColor" /></svg>