<svg xmlns="http://www.w3.org/2000/svg" viewBox="0 0 39.75 43.7"><path d="M357.14,70.37V94.21a4,4,0,0,0,4,4h4a2.39,2.39,0,0,1,2.39,2.38v7.2a2.27,2.27,0,0,0,1.59,2.22,2.13,2.13,0,0,0,2.38-.8l10-10a2.39,2.39,0,0,1,1.93-1h9.54a4,4,0,0,0,4-4V70.37a4,4,0,0,0-4-4H361.12A4,4,0,0,0,357.14,70.37Zm1.59,0A2.39,2.39,0,0,1,361.12,68h31.79a2.39,2.39,0,0,1,2.39,2.39V94.21a2.39,2.39,0,0,1-2.39,2.39h-9.54a4,4,0,0,0-3.18,1.65l-10,10a.5.5,0,0,1-.62.23.67.67,0,0,1-.46-.7v-7.22a4,4,0,0,0-4-4h-4a2.39,2.39,0,0,1-2.39-2.39Z" transform="translate(-357.14 -66.39)" fill="currentColor"/><path d="M366.85,77.52h20.33a.8.8,0,0,0,0-1.59H366.85a.8.8,0,0,0,0,1.59Z" transform="translate(-357.14 -66.39)" fill="currentColor"/><path d="M366.85,83.09H380a.78.78,0,0,0,.75-.8.77.77,0,0,0-.75-.79H366.85a.76.76,0,0,0-.75.79A.77.77,0,0,0,366.85,83.09Z" transform="translate(-357.14 -66.39)" fill="currentColor"/><path d="M366.85,88.65H384.8a.8.8,0,0,0,0-1.59H366.85a.8.8,0,0,0,0,1.59Z" transform="translate(-357.14 -66.39)" fill="currentColor"/></svg>