<svg 
 xmlns="http://www.w3.org/2000/svg"
 xmlns:xlink="http://www.w3.org/1999/xlink"
 width="18px" height="16px">
<path fill-rule="evenodd"  fill="currentColor"
 d="M0.999,0.0 L16.999,0.0 C17.552,0.0 17.999,0.447 17.999,0.999 C17.999,1.552 17.552,1.999 16.999,1.999 L0.999,1.999 C0.447,1.999 0.0,1.552 0.0,0.999 C0.0,0.447 0.447,0.0 0.999,0.0 Z"/>
<path fill-rule="evenodd"  fill="currentColor"
 d="M0.999,13.999 L16.999,13.999 C17.552,13.999 17.999,14.447 17.999,14.999 C17.999,15.552 17.552,15.999 16.999,15.999 L0.999,15.999 C0.447,15.999 0.0,15.552 0.0,14.999 C0.0,14.447 0.447,13.999 0.999,13.999 Z"/>
<path fill-rule="evenodd"  fill="currentColor"
 d="M0.999,6.999 L16.999,6.999 C17.552,6.999 17.999,7.447 17.999,7.999 C17.999,8.552 17.552,8.999 16.999,8.999 L0.999,8.999 C0.447,8.999 0.0,8.552 0.0,7.999 C0.0,7.447 0.447,6.999 0.999,6.999 Z"/>
</svg>