<svg 
 xmlns="http://www.w3.org/2000/svg"
 xmlns:xlink="http://www.w3.org/1999/xlink"
 width="11px" height="10px">
<path fill-rule="evenodd"  fill="currentColor"
 d="M4.140,4.266 C4.593,3.777 4.819,3.188 4.819,2.499 C4.819,1.801 4.595,1.210 4.147,0.726 C3.699,0.242 3.124,0.0 2.422,0.0 C1.711,0.0 1.129,0.244 0.676,0.733 C0.223,1.222 0.3,1.810 0.3,2.499 C0.3,3.198 0.220,3.789 0.669,4.273 C1.117,4.757 1.692,4.999 2.393,4.999 C3.104,4.999 3.686,4.755 4.140,4.266 ZM2.481,9.887 L9.963,0.111 L8.517,0.111 L1.34,9.887 L2.481,9.887 ZM10.321,9.266 C10.774,8.777 11.1,8.188 11.1,7.499 C11.1,6.800 10.777,6.209 10.329,5.725 C9.880,5.241 9.306,4.999 8.604,4.999 C7.893,4.999 7.311,5.244 6.858,5.732 C6.405,6.221 6.178,6.810 6.178,7.499 C6.178,8.197 6.402,8.789 6.851,9.272 C7.299,9.757 7.874,9.999 8.575,9.999 C9.286,9.999 9.868,9.754 10.321,9.266 ZM1.619,3.512 C1.404,3.237 1.297,2.900 1.297,2.499 C1.297,2.99 1.397,1.762 1.597,1.487 C1.796,1.212 2.62,1.75 2.393,1.75 C2.715,1.75 2.982,1.212 3.197,1.487 C3.411,1.762 3.518,2.99 3.518,2.499 C3.518,2.900 3.418,3.237 3.219,3.512 C3.19,3.787 2.753,3.924 2.422,3.924 C2.101,3.924 1.833,3.787 1.619,3.512 ZM7.800,8.511 C7.586,8.237 7.479,7.899 7.479,7.499 C7.479,7.99 7.579,6.761 7.779,6.486 C7.978,6.212 8.244,6.74 8.575,6.74 C8.897,6.74 9.164,6.212 9.379,6.486 C9.593,6.761 9.700,7.99 9.700,7.499 C9.700,7.899 9.600,8.237 9.401,8.511 C9.201,8.786 8.935,8.923 8.604,8.923 C8.283,8.923 8.15,8.786 7.800,8.511 Z"/>
</svg>