<svg xmlns="http://www.w3.org/2000/svg" viewBox="0 0 14.54 14.89"><path d="M170.74,59.58l-2.84-2.69a.68.68,0,0,0-.44-.19.78.78,0,0,0-.52.17l-.68.65a1.55,1.55,0,0,1-1.94-.25l-2-2.14a1.31,1.31,0,0,1-.11-1.81c.17-.15.61-.64.79-.79a.77.77,0,0,0,.24-.5.71.71,0,0,0-.18-.51l-2.47-3.25a.76.76,0,0,0-.55-.3.71.71,0,0,0-.6.27l-.05,0c-.6.72-1.88,1.74-1.86,3.44.05,3.51,6.37,10.36,9.43,10.56,1,.06,1.89-.17,3.66-1.6a.71.71,0,0,0,.3-.55A.74.74,0,0,0,170.74,59.58Z" transform="translate(-157.56 -47.41)" fill="currentColor"/><path d="M172.08,54.9a.54.54,0,0,1-1.05-.1,7.19,7.19,0,0,0-5.18-6.3l-.13,0a.54.54,0,0,1,.29-1l.14,0a8.26,8.26,0,0,1,5.95,7.24A.41.41,0,0,1,172.08,54.9Z" transform="translate(-157.56 -47.41)" fill="currentColor"/><path d="M169.27,54.67a.53.53,0,0,1-.41.38.54.54,0,0,1-.63-.43,4.45,4.45,0,0,0-2.72-3.32.55.55,0,0,1-.29-.7.53.53,0,0,1,.7-.3,5.57,5.57,0,0,1,3.37,4.12A.52.52,0,0,1,169.27,54.67Z" transform="translate(-157.56 -47.41)" fill="currentColor"/></svg>