<svg xmlns="http://www.w3.org/2000/svg" viewBox="0 0 39.75 31.8"><path d="M440.77,72.59a.76.76,0,0,0-1.09,0L428,84.22,416.35,72.56a.76.76,0,0,0-1.09,0,.77.77,0,0,0,0,1.09l12.26,12.26a.71.71,0,0,0,.46.19l.07,0,.06,0a.71.71,0,0,0,.46-.19L440.8,73.68A.77.77,0,0,0,440.77,72.59Z" transform="translate(-408.14 -66.39)" fill="currentColor"/><path d="M443.91,66.39H412.12a4,4,0,0,0-4,4V94.21a4,4,0,0,0,4,4h31.79a4,4,0,0,0,4-4V70.37A4,4,0,0,0,443.91,66.39Zm2.39,27.82a2.39,2.39,0,0,1-2.39,2.39H412.12a2.39,2.39,0,0,1-2.39-2.39V70.37A2.39,2.39,0,0,1,412.12,68h31.79a2.39,2.39,0,0,1,2.39,2.39Z" transform="translate(-408.14 -66.39)" fill="currentColor"/></svg>