<svg xmlns="http://www.w3.org/2000/svg" viewBox="0 0 23 24.6"><path d="M152.61,125.82a.76.76,0,0,0-1.09,0l-4.59,4.59-2.47-2.47a.76.76,0,0,0-1.09,0,.77.77,0,0,0,0,1.09l3.07,3.07a.73.73,0,0,0,.46.19H147a.75.75,0,0,0,.47-.19l5.18-5.19A.76.76,0,0,0,152.61,125.82Z" transform="translate(-130.88 -111.87)" fill="currentColor"/><path d="M140.73,115.55h-5.51a.7.7,0,0,0-.7.7h0a.7.7,0,0,0,.7.7h5.51a.7.7,0,0,0,.7-.7h0a.7.7,0,0,0-.7-.7Z" transform="translate(-130.88 -111.87)" fill="currentColor"/><path d="M140.73,119.07h-5.51a.7.7,0,0,0,0,1.4h5.51a.7.7,0,1,0,0-1.4Z" transform="translate(-130.88 -111.87)" fill="currentColor"/><path d="M140.73,122.59h-5.51a.7.7,0,1,0,0,1.4h5.51a.7.7,0,1,0,0-1.4Z" transform="translate(-130.88 -111.87)" fill="currentColor"/><path d="M132.88,132.07a.6.6,0,0,1-.6-.6v-17.6a.6.6,0,0,1,.6-.6h16a.6.6,0,0,1,.6.6V122a8.42,8.42,0,0,1,1.4.63v-8.77a2,2,0,0,0-2-2h-16a2,2,0,0,0-2,2v17.6a2,2,0,0,0,2,2h7.17a7.71,7.71,0,0,1-.64-1.4Z" transform="translate(-130.88 -111.87)" fill="currentColor"/><path d="M153.54,127.39a2.11,2.11,0,0,1-.19.23l-1,1a4.82,4.82,0,0,1,.08.86,5.46,5.46,0,1,1-1.9-4.12l.33-.33a1.68,1.68,0,0,1,1-.48,6.94,6.94,0,1,0,1.72,2.79Z" transform="translate(-130.88 -111.87)" fill="currentColor"/></svg>