<svg xmlns="http://www.w3.org/2000/svg" viewBox="0 0 26.74 16.03"><path d="M398.62,255.93c.89,0,.89-1.29.89-1.78a1.91,1.91,0,0,1,1.78-1.78c.89,0,2.41,1.52,3.56,2.67.89.89.89.89,1.78.89h2.67a1.8,1.8,0,0,0,1.78-1.78c0-.56-.61-1.5-2.67-3.56-1.78-1.79-2.69-.87,0-4.45,1.64-2.19,2.83-4.17,2.63-4.74s-4.76-1.42-5.3-.61a33.27,33.27,0,0,0-2.67,4.45c-.89,1.79-1,2.67-1.78,2.67s-.89-1.72-.89-2.67c0-2.94.42-5-.89-5.34h-2.67a5.2,5.2,0,0,0-2.68.89s-1.1.87-.88.89,1.78-.36,1.78.89v1.79s0,3.55-.9,3.55-2.66-3.55-4.44-6.23c-.7-1-.89-.89-1.79-.89s-1.77,0-2.67,0-1,.57-.88.85c1.77,4.46,3.05,7.25,6.44,10.77,3.1,3.23,5.17,3.4,6.91,3.48C398.17,256,397.73,255.93,398.62,255.93Z" transform="translate(-384.34 -239.9)" fill="currentColor"/></svg>