<svg xmlns="http://www.w3.org/2000/svg" viewBox="0 0 19.9 20"><path d="M234.84,48a9.82,9.82,0,0,0-7-2.91,9.92,9.92,0,0,0-8.59,14.87l-1.41,5.13,5.26-1.38a9.84,9.84,0,0,0,4.73,1.21h0a9.91,9.91,0,0,0,7-16.92ZM232.67,58.5A2.52,2.52,0,0,1,231,59.68a3.44,3.44,0,0,1-1.56-.1,12.1,12.1,0,0,1-1.41-.52,11.06,11.06,0,0,1-4.23-3.74,4.82,4.82,0,0,1-1-2.56,2.78,2.78,0,0,1,.87-2.07.92.92,0,0,1,.66-.31h.47c.15,0,.36-.06.56.43s.7,1.71.76,1.84a.41.41,0,0,1,0,.43,1.52,1.52,0,0,1-.24.41c-.13.15-.26.33-.38.44s-.25.25-.1.5a7.43,7.43,0,0,0,1.37,1.72,7.19,7.19,0,0,0,2,1.23c.25.12.4.1.54-.07s.62-.72.79-1,.33-.2.55-.12,1.45.68,1.69.81.42.18.48.28A2.08,2.08,0,0,1,232.67,58.5Z" transform="translate(-217.83 -45.05)" fill="currentColor" fill-rule="evenodd"/></svg>