<svg xmlns="http://www.w3.org/2000/svg" viewBox="0 0 29.44 29.44"><path d="M297.5,22.31A10.69,10.69,0,1,1,286.81,33,10.71,10.71,0,0,1,297.5,22.31m0-1.5A12.19,12.19,0,1,0,309.69,33,12.19,12.19,0,0,0,297.5,20.81Z" transform="translate(-280.24 -20.81)" fill="currentColor"/><line x1="9.07" y1="20.37" x2="0.75" y2="28.69" fill="none" stroke="currentColor" stroke-linecap="round" stroke-miterlimit="10" stroke-width="1.5"/><polygon points="18 6.19 16.5 6.19 16.5 11.44 11.26 11.44 11.26 12.94 16.5 12.94 16.5 18.19 18 18.19 18 12.94 23.25 12.94 23.25 11.44 18 11.44 18 6.19 18 6.19" fill="currentColor"/></svg>