<svg xmlns="http://www.w3.org/2000/svg" width="42.91" height="42.91" viewBox="0 0 42.91 42.91"><path d="M174.81,327A20,20,0,1,1,154.86,347,20,20,0,0,1,174.81,327m0-1.5A21.46,21.46,0,1,0,196.27,347a21.45,21.45,0,0,0-21.46-21.45Z" transform="translate(-153.36 -325.51)" fill="#43211e"/><path d="M175.79,342h-.28v3.3h.28a2.73,2.73,0,0,0,1.87-.46,1.76,1.76,0,0,0,.47-1.28,1.51,1.51,0,0,0-.44-1.13C177.59,342.28,177.16,342,175.79,342Z" transform="translate(-153.36 -325.51)" fill="#b9a99d"/><path d="M174.81,329.72A17.25,17.25,0,1,0,192.06,347,17.25,17.25,0,0,0,174.81,329.72Zm6.88,19a6.4,6.4,0,0,1-1.83,1.13,1.51,1.51,0,0,1,.39,1v2.16a1.5,1.5,0,0,1-1.5,1.5h-3.24v2A1.5,1.5,0,0,1,174,358H171.3a1.5,1.5,0,0,1-1.5-1.5v-2h-.69a1.5,1.5,0,0,1-1.5-1.5v-2.16a1.48,1.48,0,0,1,.3-.9,1.51,1.51,0,0,1-.3-.91v-2.33a1.5,1.5,0,0,1,1.5-1.5h.69V338a1.5,1.5,0,0,1,1.5-1.5h4.49a8.55,8.55,0,0,1,5.9,1.88,6.73,6.73,0,0,1,2.15,5.21A6.59,6.59,0,0,1,181.69,348.75Z" transform="translate(-153.36 -325.51)" fill="#b9a99d"/><path d="M178.75,353.05H174v3.49H171.3v-3.49h-2.19v-2.16h2.19v-1.81h-2.19v-2.33h2.19V338h4.49a7.1,7.1,0,0,1,4.89,1.49,5.23,5.23,0,0,1,1.66,4.1,5.15,5.15,0,0,1-1.65,4.07,7.19,7.19,0,0,1-4.9,1.45H174v1.81h4.74ZM174,340.45v6.3h1.78a3.9,3.9,0,0,0,3-.94,3.26,3.26,0,0,0,.87-2.3,3,3,0,0,0-.87-2.18,4.12,4.12,0,0,0-3-.88Z" transform="translate(-153.36 -325.51)" fill="#eebf12"/></svg>