<svg xmlns="http://www.w3.org/2000/svg" width="90.01" height="55.16" viewBox="0 0 90.01 55.16"><path d="M93.08,337.1A7.91,7.91,0,1,0,101,345,7.91,7.91,0,0,0,93.08,337.1Zm0,11.35A3.44,3.44,0,1,1,96.52,345,3.44,3.44,0,0,1,93.08,348.45Z" transform="translate(-64.95 -297.75)" fill="#43211e"/><path d="M134.78,337.1a7.91,7.91,0,1,0,7.91,7.91A7.91,7.91,0,0,0,134.78,337.1Zm0,11.35a3.44,3.44,0,1,1,3.44-3.44A3.44,3.44,0,0,1,134.78,348.45Z" transform="translate(-64.95 -297.75)" fill="#43211e"/><path d="M102,312.8a2,2,0,0,1-2,2H72.16a2,2,0,0,1-2-2v-1.21a2,2,0,0,1,2-2H100a2,2,0,0,1,2,2Z" transform="translate(-64.95 -297.75)" fill="#eebf12"/><path d="M150.28,324.6c-2.9-.76-4.56-1.23-5.7-3.43l-3.81-7.71a8.14,8.14,0,0,0-6.57-4H129a.67.67,0,0,1-.7-.69v-6.46c0-2.51-1.42-4.56-4.43-4.56H81.42c-4.32,0-6.37,2.05-6.37,4.56v4.05a1.17,1.17,0,0,0,1.16,1.21H100a4,4,0,0,1,4,4v1.21a4,4,0,0,1-4,4H76.21A1.07,1.07,0,0,0,75.05,318v1.4c0,1.11,1.51,1.11,1.51,1.11h16a4,4,0,0,1,4,4v1.21a4,4,0,0,1-4,4H76.82s-1.77,0-1.77,1.38v9.79a4.57,4.57,0,0,0,4.55,4.56h2.52c.57,0,.65-.32.65-.48a10.31,10.31,0,0,1,20.62,0c0,.16,0,.48.39.48h20.31c.4,0,.39-.34.39-.48a10.31,10.31,0,0,1,20.61,0c0,.16,0,.48.25.48h5.12A4.52,4.52,0,0,0,155,341v-8.55C155,325.22,152.69,325.22,150.28,324.6Zm-8.57-.4H128.89a.6.6,0,0,1-.6-.52V313s0-.41.65-.41h3.66a7.27,7.27,0,0,1,5.85,3.56l3.39,6.86a5.18,5.18,0,0,0,.45.74C142.42,323.91,142.21,324.2,141.71,324.2Z" transform="translate(-64.95 -297.75)" fill="#b9a99d"/><path d="M94.57,325.73a2,2,0,0,1-2,2H67a2,2,0,0,1-2-2v-1.21a2,2,0,0,1,2-2H92.55a2,2,0,0,1,2,2Z" transform="translate(-64.95 -297.75)" fill="#eebf12"/></svg>