<svg xmlns="http://www.w3.org/2000/svg" width="30" height="38.59" viewBox="0 0 30 38.59"><path d="M283.55,335.1a1.14,1.14,0,0,0-.83-.36,1.19,1.19,0,0,0-1.2,1.2v7.19a1.19,1.19,0,0,0,1.19,1.19h7.19a1.19,1.19,0,0,0,.84-2Z" transform="translate(-262.01 -333.83)" fill="#43211e"/><path d="M280.08,355.05a4,4,0,0,0-2.47-1,2.64,2.64,0,0,1-.93-.22l-.27,1.75a2.15,2.15,0,0,1-2.14,1.82A2,2,0,0,1,273,357a4,4,0,0,0,1.19,3.91,4,4,0,0,0,2.48,1,2.75,2.75,0,0,1,.93.22l.26-1.75a2.17,2.17,0,0,1,2.14-1.82,2.1,2.1,0,0,1,1.24.39,4,4,0,0,0-.19-2.45A3.83,3.83,0,0,0,280.08,355.05Z" transform="translate(-262.01 -333.83)" fill="#b9a99d"/><path d="M272.89,362.39a6,6,0,0,1-.83-8,.74.74,0,0,1,1.11-.08l1,1a.16.16,0,0,0,.27-.1l.7-4.62a.87.87,0,0,0-1-1l-4.63.7c-.12,0-.19.18-.1.26l1.08,1.09a.71.71,0,0,1,.06,1,8.27,8.27,0,0,0-.9,9.27,8.38,8.38,0,0,0,2.12,2.51,8.16,8.16,0,0,0,4.6,1.75.75.75,0,0,0,.79-.62l.12-.83a.71.71,0,0,0-.68-.82A6,6,0,0,1,272.89,362.39Z" transform="translate(-262.01 -333.83)" fill="#eebf12"/><path d="M283.81,364.26a.72.72,0,0,1-.06-1,8.29,8.29,0,0,0,.91-9.27,8.42,8.42,0,0,0-2.13-2.51,8.16,8.16,0,0,0-4.6-1.75.74.74,0,0,0-.78.62l-.13.83a.71.71,0,0,0,.68.83,6,6,0,0,1,4.55,9.47.73.73,0,0,1-1.11.08l-1-1a.16.16,0,0,0-.26.1l-.71,4.62a.88.88,0,0,0,1,1l4.63-.71a.16.16,0,0,0,.1-.26Z" transform="translate(-262.01 -333.83)" fill="#eebf12"/><path d="M286.41,353.07a10.29,10.29,0,0,0-2.63-3.11,10.12,10.12,0,0,0-5.72-2.18h-.17a2.75,2.75,0,0,0-1.71.59,2.87,2.87,0,0,0-1.9-.73h0l-.43,0-4.63.71A2.15,2.15,0,0,0,268,352l.31.31A10.24,10.24,0,0,0,270.53,366a10.15,10.15,0,0,0,5.73,2.18h.17a2.74,2.74,0,0,0,1.7-.59,2.9,2.9,0,0,0,1.9.74,2.09,2.09,0,0,0,.43,0l4.63-.7a2.19,2.19,0,0,0,1.73-1.46,2.14,2.14,0,0,0-.48-2.17l-.34-.34A10.34,10.34,0,0,0,286.41,353.07Z" transform="translate(-262.01 -333.83)" fill="none"/><path d="M290.71,346.32h-7.89a3.3,3.3,0,0,1-3.3-3.3v-7.89a3.32,3.32,0,0,1,.27-1.3H264a2,2,0,0,0-2,2v34.59a2,2,0,0,0,2,2h26a2,2,0,0,0,2-2V346.05A3.32,3.32,0,0,1,290.71,346.32ZM265,339a2.14,2.14,0,1,1,2.14,2.14A2.13,2.13,0,0,1,265,339Zm21.33,25a2.14,2.14,0,0,1,.48,2.17,2.19,2.19,0,0,1-1.73,1.46l-4.63.7a2.09,2.09,0,0,1-.43,0,2.9,2.9,0,0,1-1.9-.74,2.74,2.74,0,0,1-1.7.59h-.17a10.15,10.15,0,0,1-5.73-2.18,10.24,10.24,0,0,1-2.21-13.66L268,352a2.15,2.15,0,0,1,1.21-3.65l4.63-.71.43,0h0a2.87,2.87,0,0,1,1.9.73,2.75,2.75,0,0,1,1.71-.59h.17a10.12,10.12,0,0,1,5.72,2.18A10.25,10.25,0,0,1,286,363.62Z" transform="translate(-262.01 -333.83)" fill="#b9a99d"/></svg>