<svg xmlns="http://www.w3.org/2000/svg" width="36.24" height="27.2" viewBox="0 0 36.24 27.2"><rect width="10.37" height="10.37" rx="2" fill="#43211e"/><rect x="12.93" width="10.37" height="10.37" rx="2" fill="#b9a99d"/><rect y="12.93" width="10.37" height="10.37" rx="2" fill="#b9a99d"/><rect x="25.87" width="10.37" height="10.37" rx="2" fill="#b9a99d"/><path d="M135.39,349.79a7.3,7.3,0,0,0-5.26,2.73,7.26,7.26,0,0,0-5.25-2.73,5.57,5.57,0,1,0,0,11.13,7.24,7.24,0,0,0,5.25-2.74,7.28,7.28,0,0,0,5.26,2.74,5.57,5.57,0,1,0,0-11.13Zm-10.51,7.79a2.24,2.24,0,1,1,0-4.45c1.33,0,2.55,1.25,3.27,2.22C127.44,356.31,126.2,357.58,124.88,357.58Zm10.51,0c-1.33,0-2.55-1.26-3.27-2.23.71-1,1.94-2.22,3.27-2.22a2.24,2.24,0,1,1,0,4.45Z" transform="translate(-105.02 -333.72)" fill="#eebf12"/><path d="M124.88,347.79a7.77,7.77,0,0,1,3.44.82,2,2,0,0,0-2-2H120a2,2,0,0,0-2,2v3.11A7.92,7.92,0,0,1,124.88,347.79Z" transform="translate(-105.02 -333.72)" fill="#b9a99d"/><path d="M141.26,350.33v-1.68a2,2,0,0,0-2-2h-6.37a2,2,0,0,0-2,2v.57a8.09,8.09,0,0,1,4.5-1.43A8,8,0,0,1,141.26,350.33Z" transform="translate(-105.02 -333.72)" fill="#b9a99d"/></svg>