<svg xmlns="http://www.w3.org/2000/svg" width="41.66" height="47" viewBox="0 0 41.66 47"><path d="M219.5,358.3a1.07,1.07,0,0,0,2.13,0,5.33,5.33,0,0,1,1.25-3.42,21.88,21.88,0,0,0,4-6.86,1.05,1.05,0,0,0-.13-1,1.08,1.08,0,0,0-.87-.45H215.26a1.08,1.08,0,0,0-.87.45,1.05,1.05,0,0,0-.13,1,22,22,0,0,0,4,6.86A5.29,5.29,0,0,1,219.5,358.3Z" transform="translate(-199.73 -335.87)" fill="#43211e"/><path d="M239.26,378.6h-.64c-.74-8.32-5.61-14.7-9.39-19.23,3.79-4.53,8.65-10.92,9.39-19.23h.64a2.14,2.14,0,0,0,0-4.27H201.87a2.14,2.14,0,1,0,0,4.27h.64c.73,8.31,5.6,14.7,9.39,19.23-3.79,4.53-8.66,10.91-9.39,19.23h-.64a2.14,2.14,0,1,0,0,4.27h37.39a2.14,2.14,0,0,0,0-4.27Zm-32.47,0c.8-7.51,5.69-13.3,9.34-17.62l.19-.23a2.15,2.15,0,0,0,0-2.76l-.19-.23c-3.65-4.32-8.54-10.1-9.34-17.62h27.55c-.81,7.52-5.69,13.3-9.34,17.62l-.19.23a2.12,2.12,0,0,0,0,2.76l.19.23c3.65,4.32,8.53,10.11,9.34,17.62Z" transform="translate(-199.73 -335.87)" fill="#b9a99d"/><path d="M231.18,375.4c-1.06-3.07-7.65-13.89-10.62-13.89S211,372.33,210,375.4a1.08,1.08,0,0,0,0,1.06,1.06,1.06,0,0,0,.92.53h19.36a1.07,1.07,0,0,0,.94-1.59Z" transform="translate(-199.73 -335.87)" fill="#eebf12"/></svg>