<svg xmlns="http://www.w3.org/2000/svg" width="42.75" height="52.3" viewBox="0 0 42.75 52.3"><path d="M284.9,220.76a.74.74,0,0,0-.75-.75h-2.74l3.27-3.28a.75.75,0,0,0-1.06-1.06L279.28,220H274.2a1.05,1.05,0,0,1,.07-.11l2.78-2.51a1.15,1.15,0,0,0-.77-2h-.06l-3.74.19h-.06l-.07,0L276,212h6.14a.75.75,0,0,0,0-1.5h-4.64l1.94-1.94a.75.75,0,1,0-1.06-1.06l-1.94,1.94v-4.64a.75.75,0,0,0-1.5,0v6.14l-3.6,3.6c0-.05,0-.09,0-.13l.19-3.74a1.14,1.14,0,0,0-1.16-1.21,1.1,1.1,0,0,0-.84.38L267,212.58a1.05,1.05,0,0,1-.11.07v-5.09l4.34-4.33a.75.75,0,0,0,0-1.06.74.74,0,0,0-1.06,0l-3.28,3.27V198.7a.75.75,0,0,0-1.5,0v44.11a.75.75,0,0,0,1.5,0v-6.74l3.28,3.27a.74.74,0,0,0,1.06,0,.75.75,0,0,0,0-1.06L266.84,234v-5.09a1.05,1.05,0,0,1,.11.07l2.51,2.78a1.1,1.1,0,0,0,.84.38,1.14,1.14,0,0,0,1.16-1.21l-.19-3.74s0-.08,0-.13l3.6,3.6v6.14a.75.75,0,0,0,1.5,0v-4.64l1.94,1.95a.75.75,0,1,0,1.06-1.07l-1.94-1.94h4.64a.75.75,0,0,0,0-1.5H276l-3.6-3.6.07,0h.06l3.74.19h.06a1.15,1.15,0,0,0,.77-2l-2.78-2.51s0-.07-.07-.1h5.08l4.34,4.33a.75.75,0,0,0,1.06-1.06l-3.27-3.27h2.74A.75.75,0,0,0,284.9,220.76Zm-13.73-4a2.6,2.6,0,0,0,1.25.34h.14l2.76-.14-2.05,1.86a2.51,2.51,0,0,0-.75,1.22H267.9Zm-4.33-2.41a2.51,2.51,0,0,0,1.22-.75l1.86-2.05-.15,2.76a2.73,2.73,0,0,0,.33,1.4l-3.26,3.25ZM269.92,230l-1.86-2a2.51,2.51,0,0,0-1.22-.75v-4.61l3.26,3.25a2.73,2.73,0,0,0-.33,1.4Zm5.4-5.4-2.76-.14h-.14a2.6,2.6,0,0,0-1.25.34l-3.27-3.26h4.62a2.53,2.53,0,0,0,.75,1.21Z" transform="translate(-242.15 -194.6)" fill="#43211e"/><path d="M260.89,196.1a.5.5,0,0,1,.5.5v48.31a.5.5,0,0,1-.5.5H244.15a.51.51,0,0,1-.5-.5V196.6a.51.51,0,0,1,.5-.5h16.74m0-1.5H244.15a2,2,0,0,0-2,2v48.31a2,2,0,0,0,2,2h16.74a2,2,0,0,0,2-2V196.6a2,2,0,0,0-2-2Z" transform="translate(-242.15 -194.6)" fill="#43211e"/><path d="M252.52,201.72a1.54,1.54,0,1,1-1.53,1.54,1.53,1.53,0,0,1,1.53-1.54m0-1.5a3,3,0,1,0,3,3,3,3,0,0,0-3-3Z" transform="translate(-242.15 -194.6)" fill="#43211e"/><path d="M252.52,213.39a1.53,1.53,0,1,1-1.53,1.53,1.53,1.53,0,0,1,1.53-1.53m0-1.5a3,3,0,1,0,3,3,3,3,0,0,0-3-3Z" transform="translate(-242.15 -194.6)" fill="#43211e"/><path d="M252.52,225.06a1.53,1.53,0,1,1-1.53,1.53,1.52,1.52,0,0,1,1.53-1.53m0-1.5a3,3,0,1,0,3,3,3,3,0,0,0-3-3Z" transform="translate(-242.15 -194.6)" fill="#43211e"/><path d="M252.52,236.72a1.54,1.54,0,1,1-1.53,1.54,1.53,1.53,0,0,1,1.53-1.54m0-1.5a3,3,0,1,0,3,3,3,3,0,0,0-3-3Z" transform="translate(-242.15 -194.6)" fill="#43211e"/></svg>