<svg xmlns="http://www.w3.org/2000/svg" width="54.32" height="49.47" viewBox="0 0 54.32 49.47"><path d="M112,215.08a13,13,0,0,1,13,13v.3h-.52V226H100.09v2.37H99V228a13,13,0,0,1,13-13m35.32-19.43H114.27a2,2,0,0,0-2,2v14.44q.75,0,1.5.09V207.6h34.06v35.52h0l-17.43-12.88a2.38,2.38,0,0,0-1.41-.44,2.42,2.42,0,0,0-1.42.44l-18.1,13.37h-6.55V232h14.15a.75.75,0,0,0,0-1.5H101.59v-3H123v3h-1.32v2.28l2.82-2.08v-.85h1.15l.87-.65V228a14.47,14.47,0,0,0-28.93,0v1.8h2.55V232h1.32v11.63h-4a.75.75,0,1,0,0,1.5h52.82a.75.75,0,1,0,0-1.5h-1a2,2,0,0,0,.07-.5V197.65a2,2,0,0,0-2-2ZM113.77,206.1v-8.45a.5.5,0,0,1,.5-.5h33.06a.51.51,0,0,1,.5.5v8.45ZM112,243.62l16.47-12.17a1,1,0,0,1,.52-.14,1,1,0,0,1,.52.14L146,243.62H112Z" transform="translate(-96.65 -195.65)" fill="#43211e"/><path d="M142.08,212.66a.5.5,0,0,1,.5.5v7.18a.5.5,0,0,1-.5.5H136a.5.5,0,0,1-.5-.5v-7.18a.5.5,0,0,1,.5-.5h6.07m0-1.5H136a2,2,0,0,0-2,2v7.18a2,2,0,0,0,2,2h6.07a2,2,0,0,0,2-2v-7.18a2,2,0,0,0-2-2Z" transform="translate(-96.65 -195.65)" fill="#43211e"/></svg>