<svg xmlns="http://www.w3.org/2000/svg" width="45" height="45" viewBox="0 0 45 45"><circle cx="5.75" cy="39.25" r="0.75" fill="#43211e"/><circle cx="5.75" cy="32.25" r="0.75" fill="#43211e"/><circle cx="5.75" cy="25.25" r="0.75" fill="#43211e"/><circle cx="12.75" cy="39.25" r="0.75" fill="#43211e"/><circle cx="19.75" cy="39.25" r="0.75" fill="#43211e"/><path d="M215.41,210.56v2.69H198.8v-2.69h16.61m1.5-1.5H197.3v5.69h19.61v-5.69Z" transform="translate(-171.91 -199.4)" fill="#43211e"/><rect x="26.98" y="16.85" width="2.69" height="26.65" fill="none"/><polygon points="29.67 43.5 26.98 43.5 26.98 16.84 25.48 16.84 25.48 45 31.17 45 31.17 16.84 29.67 16.84 29.67 43.5" fill="#43211e"/><path d="M198.9,200.9h2.69v6.66h1.5v-7.17a1,1,0,0,0-1-1h-3.72a1,1,0,0,0-1,1v7.17h1.5Z" transform="translate(-171.91 -199.4)" fill="#43211e"/><path d="M204.59,227.12v1.62a31.49,31.49,0,0,0,10.82,2.46v11.2a.5.5,0,0,1-.5.5h-41a.5.5,0,0,1-.5-.5v-41a.51.51,0,0,1,.5-.5h11.21a31.73,31.73,0,0,0,10.78,22.38v-2a30.24,30.24,0,0,1-9.32-21.86H173.91a2,2,0,0,0-2,2v41a2,2,0,0,0,2,2h41a2,2,0,0,0,2-2V229.73A30.29,30.29,0,0,1,204.59,227.12Z" transform="translate(-171.91 -199.4)" fill="#43211e"/></svg>