<svg xmlns="http://www.w3.org/2000/svg" width="54.32" height="52.65" viewBox="0 0 54.32 52.65"><path d="M323.38,210v-2.57a2,2,0,0,0-2-2H320v-11.2a.75.75,0,0,0-1.5,0v11.2H317.1a2,2,0,0,0-2,2V210a2,2,0,0,0-1.74,2v32.15a2,2,0,0,0,2,2h7.76a2,2,0,0,0,2-2V212A2,2,0,0,0,323.38,210Zm-6.28-3.07h4.28a.5.5,0,0,1,.5.5V210H316.6v-2.55A.5.5,0,0,1,317.1,206.92Zm6.52,37.2a.5.5,0,0,1-.5.5h-7.76a.5.5,0,0,1-.5-.5V212a.5.5,0,0,1,.5-.5h7.76a.5.5,0,0,1,.5.5Z" transform="translate(-309.74 -193.47)" fill="#43211e"/><path d="M317.35,229.2a.75.75,0,0,0-.75.75v11.61a.75.75,0,1,0,1.5,0V230A.74.74,0,0,0,317.35,229.2Z" transform="translate(-309.74 -193.47)" fill="#43211e"/><path d="M358.44,218.7H348v1.5h10.47a.5.5,0,0,1,.5.5v2.48H348v1.5h11v19.44a.5.5,0,0,1-.5.5h-16.2a2,2,0,0,0,.07-.5V211.47h2.16a.5.5,0,0,1,.5.5v14h-.55a1,1,0,0,0-1,1v10.44a1,1,0,0,0,1,1H347a1,1,0,0,0,1-1V227a1,1,0,0,0-1-1h-.57V212a2,2,0,0,0-2-2h-2.16v-7.5a2,2,0,0,0-2-2H328.36a2,2,0,0,0-2,2v41.65a2,2,0,0,0,2,2h30.08a2,2,0,0,0,2-2V220.7A2,2,0,0,0,358.44,218.7ZM346.57,237h-1.69v-9.5h1.69Zm-18.71-34.48a.5.5,0,0,1,.5-.5h11.95a.51.51,0,0,1,.5.5V210H327.86Zm0,21.28h8a.5.5,0,0,1,.5.5V236a.5.5,0,0,1-.5.5h-8ZM339,244.62H328.36a.5.5,0,0,1-.5-.5V238h8a2,2,0,0,0,2-2V224.25a2,2,0,0,0-2-2h-8V211.47h12.95v32.65a.5.5,0,0,1-.5.5Z" transform="translate(-309.74 -193.47)" fill="#43211e"/><rect y="51.15" width="54.32" height="1.5" rx="0.75" fill="#43211e"/></svg>