<svg xmlns="http://www.w3.org/2000/svg" width="54.52" height="52.17" viewBox="0 0 54.52 52.17"><path d="M112.4,218.58H73.23a2,2,0,0,0-2,2v23.94a2,2,0,0,0,2,2H112.4a2,2,0,0,0,2-2V220.58A2,2,0,0,0,112.4,218.58Zm.5,25.94a.5.5,0,0,1-.5.5H73.23a.5.5,0,0,1-.5-.5V220.58a.5.5,0,0,1,.5-.5H112.4a.5.5,0,0,1,.5.5Z" transform="translate(-65.55 -194.35)" fill="#43211e"/><path d="M67.05,215.65l18.72-18.72v7.78L73.4,217.08h2.13l10.24-10.25v7.78l-2.47,2.47h2.13l.34-.35v.35h1.5V196.35a2,2,0,0,0-2-2H67.55a2,2,0,0,0-2,2v27.3a2,2,0,0,0,2,2h2.18v-1.5H68.45l1.28-1.27v-2.12l-2.68,2.67Zm0-2.12v-7.78l9.91-9.9h7.77Zm.5-17.68h7.28l-7.78,7.78v-7.28A.5.5,0,0,1,67.55,195.85Z" transform="translate(-65.55 -194.35)" fill="#43211e"/><path d="M118.07,200.18H88.77v1.5h29.3a.5.5,0,0,1,.5.5V227.7a.5.5,0,0,1-.5.5H115.9v1.5h2.17a2,2,0,0,0,2-2V202.18A2,2,0,0,0,118.07,200.18Z" transform="translate(-65.55 -194.35)" fill="#43211e"/><path d="M108.75,224.64,97.68,235.71a.75.75,0,0,0,1.06,1.06l11.07-11.07a.75.75,0,0,0-1.06-1.06Z" transform="translate(-65.55 -194.35)" fill="#43211e"/><path d="M105.28,234.28l-7.5,7.51a.74.74,0,0,0,0,1.06.75.75,0,0,0,1.06,0l7.5-7.51a.75.75,0,0,0-1.06-1.06Z" transform="translate(-65.55 -194.35)" fill="#43211e"/><path d="M84.13,231.89l-7.5,7.5a.75.75,0,0,0,1.06,1.06L85.2,233a.75.75,0,0,0-1.07-1.06Z" transform="translate(-65.55 -194.35)" fill="#43211e"/><circle cx="23.97" cy="10.01" r="0.75" fill="#43211e"/><circle cx="30.22" cy="10.01" r="0.75" fill="#43211e"/><circle cx="36.47" cy="10.01" r="0.75" fill="#43211e"/><circle cx="42.72" cy="10.01" r="0.75" fill="#43211e"/><circle cx="48.97" cy="10.01" r="0.75" fill="#43211e"/><circle cx="26.97" cy="14.01" r="0.75" fill="#43211e"/><circle cx="33.22" cy="14.01" r="0.75" fill="#43211e"/><circle cx="39.47" cy="14.01" r="0.75" fill="#43211e"/><circle cx="45.72" cy="14.01" r="0.75" fill="#43211e"/><circle cx="23.97" cy="18.01" r="0.75" fill="#43211e"/><circle cx="30.22" cy="18.01" r="0.75" fill="#43211e"/><circle cx="36.47" cy="18.01" r="0.75" fill="#43211e"/><circle cx="42.72" cy="18.01" r="0.75" fill="#43211e"/><circle cx="48.97" cy="18.01" r="0.75" fill="#43211e"/><circle cx="26.97" cy="22.01" r="0.75" fill="#43211e"/><circle cx="33.22" cy="22.01" r="0.75" fill="#43211e"/><circle cx="39.47" cy="22.01" r="0.75" fill="#43211e"/><circle cx="45.72" cy="22.01" r="0.75" fill="#43211e"/></svg>