<svg xmlns="http://www.w3.org/2000/svg" width="48.59" height="43.35" viewBox="0 0 48.59 43.35"><path d="M491.62,228.05a.75.75,0,0,0,0,1.5h2.5v2.51a.76.76,0,0,0,.76.75.75.75,0,0,0,.74-.75v-2.51h3.08v2.51a.75.75,0,0,0,1.5,0v-2.51h3.07v2.51a.75.75,0,0,0,1.5,0v-2.51h2.5a.75.75,0,0,0,0-1.5h-2.5V225h2.5a.75.75,0,0,0,0-1.5h-2.5v-3.07h2.5a.75.75,0,0,0,0-1.5h-2.5v-2.5a.75.75,0,1,0-1.5,0v2.5H500.2v-2.5a.75.75,0,0,0-1.5,0v2.5h-3.08v-2.5a.74.74,0,0,0-.74-.75.75.75,0,0,0-.76.75v2.5h-2.5a.75.75,0,0,0,0,1.5h2.5v3.07h-2.5a.75.75,0,0,0,0,1.5h2.5v3.07Zm11.65,0H500.2V225h3.07Zm0-7.64v3.07H500.2v-3.07Zm-7.65,0h3.08v3.07h-3.08Zm0,4.57h3.08v3.07h-3.08Z" transform="translate(-473.15 -203.56)" fill="#43211e"/><path d="M519.74,207.56h-34.2v1.5h34.2a.5.5,0,0,1,.5.5v23.55a2.91,2.91,0,0,0-1.49-.4h-8.22a3,3,0,0,0-3,3v8.23a2.91,2.91,0,0,0,.4,1.49H479.44a4.8,4.8,0,0,1-4.79-4.79v-1.34a5.38,5.38,0,0,1,4-1.72A5.44,5.44,0,0,1,484,243V209a5.45,5.45,0,0,0-10.89,0v31.78h0a6.29,6.29,0,0,0,6.28,6.13h40.3a2,2,0,0,0,2-2V209.56A2,2,0,0,0,519.74,207.56ZM474.65,209a3.95,3.95,0,0,1,7.89,0v28.29a6.9,6.9,0,0,0-7.89,0V209Zm34.4,34.92v-8.23a1.48,1.48,0,0,1,1.48-1.48h8.22a1.48,1.48,0,0,1,1,2.53L511.57,245a1.44,1.44,0,0,1-1,.44A1.48,1.48,0,0,1,509.05,243.92Zm10.69,1.49h-6.49l7-7v6.49A.51.51,0,0,1,519.74,245.41Z" transform="translate(-473.15 -203.56)" fill="#43211e"/></svg>