<svg xmlns="http://www.w3.org/2000/svg" width="52.33" height="50.62" viewBox="0 0 52.33 50.62"><rect x="407.34" y="201.72" width="5.08" height="1.5" rx="0.75" transform="translate(-176.19 415.98) rotate(-90)" fill="#43211e"/><rect x="422.65" y="214.54" width="4.08" height="1.5" transform="translate(-174.2 443.6) rotate(-90)" fill="#43211e"/><rect x="426.65" y="214.54" width="4.08" height="1.5" transform="translate(-170.2 447.6) rotate(-90)" fill="#43211e"/><rect x="407.34" y="208.72" width="5.08" height="1.5" rx="0.75" transform="translate(-183.19 422.98) rotate(-90)" fill="#43211e"/><rect x="407.34" y="215.72" width="5.08" height="1.5" rx="0.75" transform="translate(-190.19 429.98) rotate(-90)" fill="#43211e"/><path d="M432.05,209.73v2.41H421.33v-2.41h10.72m.8-1.5H420.53a.7.7,0,0,0-.7.7v4a.7.7,0,0,0,.7.7h12.32a.7.7,0,0,0,.7-.7v-4a.7.7,0,0,0-.7-.7Z" transform="translate(-383.6 -196.38)" fill="#43211e"/><rect x="407.34" y="222.72" width="5.08" height="1.5" rx="0.75" transform="translate(-197.19 436.98) rotate(-90)" fill="#43211e"/><rect x="19.54" y="15.23" width="5.08" height="1.5" rx="0.75" fill="#43211e"/><rect x="12.54" y="15.23" width="5.08" height="1.5" rx="0.75" fill="#43211e"/><rect x="6.11" y="15.23" width="4.51" height="1.5" rx="0.75" fill="#43211e"/><rect x="407.34" y="229.72" width="5.08" height="1.5" rx="0.75" transform="translate(-204.19 443.98) rotate(-90)" fill="#43211e"/><rect x="403.98" y="240.08" width="11.79" height="1.5" rx="0.75" transform="translate(-214.55 454.33) rotate(-90)" fill="#43211e"/><rect x="387.92" y="213.39" width="5.08" height="1.5" rx="0.75" transform="translate(-207.28 408.22) rotate(-90)" fill="#43211e"/><rect x="387.92" y="220.39" width="5.08" height="1.5" rx="0.75" transform="translate(-214.28 415.22) rotate(-90)" fill="#43211e"/><path d="M385.55,241.76a5.05,5.05,0,0,0,3.27,3.28,5.28,5.28,0,0,0,4.7-.76,5.16,5.16,0,0,0,1.07-7.25l-4.13-5.29L386.33,237A5.23,5.23,0,0,0,385.55,241.76Z" transform="translate(-383.6 -196.38)" fill="none" stroke="#43211e" stroke-linecap="round" stroke-linejoin="round" stroke-width="1.5"/><path d="M435.1,235.68h-4.25v9.82H405.72V218.27a.75.75,0,0,0-.75-.75h-9.6a.74.74,0,0,0-.75.75v5.67a.75.75,0,0,0,.75.75h.44v1.63H385.1v-1.63h.44a.75.75,0,0,0,.75-.75V209.19H405a.76.76,0,0,0,.75-.75v-8.18a.76.76,0,0,0-.75-.75h-.45v-1.63h10.72v1.63h-.45a.76.76,0,0,0-.75.75v36.16a.75.75,0,0,0,.75.75h7a.75.75,0,0,0,.75-.75v-16.7a.75.75,0,0,0-.75-.75h-.45v-1.64h10.72V219h-.45a.75.75,0,0,0-.75.75v7.49h4.33a.75.75,0,0,0,0-1.5h-2.83v-5.24h.45a.76.76,0,0,0,.75-.75v-3.14a.76.76,0,0,0-.75-.75H420.58a.76.76,0,0,0-.75.75v3.14a.76.76,0,0,0,.75.75H421v15.2h-5.49V201H416a.76.76,0,0,0,.75-.75v-3.13a.75.75,0,0,0-.75-.75H403.77a.75.75,0,0,0-.75.75v3.13a.76.76,0,0,0,.75.75h.45v6.68H385.54a.76.76,0,0,0-.75.75v14.75h-.44a.74.74,0,0,0-.75.75v3.13a.75.75,0,0,0,.75.75h12.21a.76.76,0,0,0,.75-.75v-3.13a.75.75,0,0,0-.75-.75h-.44V219h8.1v27.23a.75.75,0,0,0,.75.75H431.6a.75.75,0,0,0,.75-.75v-9.07h2.75a.75.75,0,0,0,0-1.5Z" transform="translate(-383.6 -196.38)" fill="#43211e"/></svg>