<svg width="0" height="0" class="hidden">
  <symbol xmlns="http://www.w3.org/2000/svg" viewBox="0 0 18 30.46" id="ic_account">
    <path d="M188,65.77a4.84,4.84,0,0,0-3.39,8.31h-1.35A4.26,4.26,0,0,0,179,78.34v7.19a4.18,4.18,0,0,0,4.15,3.85v4.11a2.46,2.46,0,0,0,2.51,2.74h4.68a2.46,2.46,0,0,0,2.51-2.74V89.38A4.18,4.18,0,0,0,197,85.53V78.34a4.26,4.26,0,0,0-4.26-4.26h-1.35A4.84,4.84,0,0,0,188,65.77Zm0,8.31a3.47,3.47,0,1,1,3.46-3.46A3.47,3.47,0,0,1,188,74.08ZM183.15,88a2.82,2.82,0,0,1-2.77-2.47V78.34a2.88,2.88,0,0,1,2.88-2.88h9.48a2.88,2.88,0,0,1,2.88,2.88v7.19A2.82,2.82,0,0,1,192.85,88V83.77a.7.7,0,0,0-1.39,0v9.72c0,1.36-.85,1.36-1.12,1.36h-1.65V87.92a.69.69,0,0,0-1.38,0v6.93h-1.65c-.27,0-1.12,0-1.12-1.36V83.77a.7.7,0,0,0-1.39,0V88Z" transform="translate(-179 -65.77)" fill="currentColor"></path>
  </symbol>
  <symbol xmlns="http://www.w3.org/2000/svg" viewBox="0 0 23 24.6" id="ic_add_file">
    <path d="M217.93,124.09a5.44,5.44,0,1,1-5.44,5.44,5.45,5.45,0,0,1,5.44-5.44m0-1.5a6.94,6.94,0,1,0,6.95,6.94,6.94,6.94,0,0,0-6.95-6.94Z" transform="translate(-201.88 -111.87)" fill="currentColor"></path>
    <path d="M217.93,125.53a.76.76,0,0,0-.75.75v2.5h-2.5a.75.75,0,0,0,0,1.5h2.5v2.5a.75.75,0,1,0,1.5,0v-2.5h2.5a.75.75,0,0,0,0-1.5h-2.5v-2.5a.75.75,0,0,0-.75-.75Z" transform="translate(-201.88 -111.87)" fill="currentColor"></path>
    <path d="M211.73,115.55h-5.51a.7.7,0,0,0-.7.7h0a.7.7,0,0,0,.7.7h5.51a.7.7,0,0,0,.7-.7h0a.7.7,0,0,0-.7-.7Z" transform="translate(-201.88 -111.87)" fill="currentColor"></path>
    <path d="M211.73,119.07h-5.51a.7.7,0,1,0,0,1.4h5.51a.7.7,0,1,0,0-1.4Z" transform="translate(-201.88 -111.87)" fill="currentColor"></path>
    <path d="M211.73,122.59h-5.51a.7.7,0,1,0,0,1.4h5.51a.7.7,0,1,0,0-1.4Z" transform="translate(-201.88 -111.87)" fill="currentColor"></path>
    <path d="M203.88,132.07a.6.6,0,0,1-.6-.6v-17.6a.6.6,0,0,1,.6-.6h16a.6.6,0,0,1,.6.6V122a8.42,8.42,0,0,1,1.4.63v-8.77a2,2,0,0,0-2-2h-16a2,2,0,0,0-2,2v17.6a2,2,0,0,0,2,2h7.17a7.71,7.71,0,0,1-.64-1.4Z" transform="translate(-201.88 -111.87)" fill="currentColor"></path>
  </symbol>
  <symbol xmlns="http://www.w3.org/2000/svg" viewBox="0 0 11.02 20.03" id="ic_arr_hor">
    <path d="M133.35,128.67l-9-9a1,1,0,0,0-1.41,0,1,1,0,0,0,0,1.42l8.31,8.31-8.31,8.3a1,1,0,0,0,0,1.42,1,1,0,0,0,1.41,0l9-9A1,1,0,0,0,133.35,128.67Z" transform="translate(-122.63 -119.36)" fill="currentColor"></path>
  </symbol>
  <symbol xmlns="http://www.w3.org/2000/svg" viewBox="0 0 28.53 26.45" id="ic_cart">
    <circle cx="12.15" cy="23.38" r="2.37" fill="none" stroke="currentColor" stroke-linecap="round" stroke-linejoin="round" stroke-width="1.4"></circle>
    <circle cx="21.27" cy="23.38" r="2.37" fill="none" stroke="currentColor" stroke-linecap="round" stroke-linejoin="round" stroke-width="1.4"></circle>
    <polyline points="0.7 0.7 4.96 0.7 9.72 18.02 24.54 18.02 27.83 5.83 11.43 5.83" fill="none" stroke="currentColor" stroke-linecap="round" stroke-linejoin="round" stroke-width="1.4"></polyline>
  </symbol>
  <symbol xmlns="http://www.w3.org/2000/svg" viewBox="0 0 28.53 26.45" id="ic_cart_success">
    <circle cx="12.15" cy="23.38" r="2.37" fill="none" stroke="currentColor" stroke-linecap="round" stroke-linejoin="round" stroke-width="1.4"></circle>
    <circle cx="21.27" cy="23.38" r="2.37" fill="none" stroke="currentColor" stroke-linecap="round" stroke-linejoin="round" stroke-width="1.4"></circle>
    <polyline points="0.7 0.7 4.96 0.7 9.72 18.02 24.54 18.02 27.83 5.83 11.43 5.83" fill="none" stroke="currentColor" stroke-linecap="round" stroke-linejoin="round" stroke-width="1.4"></polyline>
    <path d="M291.13,77.62a.69.69,0,0,0-1,0l-4.8,4.79L283,80.08a.71.71,0,0,0-1,0,.69.69,0,0,0,0,1l2.82,2.83a.71.71,0,0,0,1,0l5.29-5.29A.71.71,0,0,0,291.13,77.62Z" transform="translate(-268.17 -69.1)" fill="currentColor"></path>
  </symbol>
  <symbol xmlns="http://www.w3.org/2000/svg" viewBox="0 0 10 7.97" id="ic_check">
    <polygon points="8.23 0 3.8 4.43 1.77 2.4 0 4.17 3.8 7.97 5.57 6.2 10 1.77 8.23 0" fill="currentColor"></polygon>
  </symbol>
  <symbol xmlns="http://www.w3.org/2000/svg" viewBox="0 0 21.6 21.6" id="ic_close">
    <path d="M106.13,119.14a.75.75,0,0,0,0,1.06l2.48,2.47-2.48,2.48a.75.75,0,1,0,1.06,1.06l2.48-2.48,2.47,2.48a.75.75,0,0,0,1.06,0,.74.74,0,0,0,0-1.06l-2.47-2.48,2.47-2.47a.74.74,0,0,0,0-1.06.75.75,0,0,0-1.06,0l-2.47,2.47-2.48-2.47a.75.75,0,0,0-1.06,0Z" transform="translate(-98.87 -111.87)" fill="currentColor"></path>
    <path d="M109.67,113.27a9.4,9.4,0,1,1-9.4,9.4,9.41,9.41,0,0,1,9.4-9.4m0-1.4a10.8,10.8,0,1,0,10.8,10.8,10.8,10.8,0,0,0-10.8-10.8Z" transform="translate(-98.87 -111.87)" fill="currentColor"></path>
  </symbol>
  <symbol xmlns="http://www.w3.org/2000/svg" viewBox="0 0 20 22.82" id="ic_delete">
    <path d="M220.57,20.42v10.9A1.52,1.52,0,0,1,219,32.84H206.9a1.53,1.53,0,0,1-1.53-1.52V20.42h15.2M222,19H204v12.3a2.93,2.93,0,0,0,2.93,2.92H219A2.93,2.93,0,0,0,222,31.32V19Z" transform="translate(-202.97 -11.43)" fill="currentColor"></path>
    <path d="M214.71,12.83a1.91,1.91,0,0,1,1.91,1.9v1.14h-7.3V14.73a1.91,1.91,0,0,1,1.91-1.9h3.48m0-1.4h-3.48a3.31,3.31,0,0,0-3.31,3.3v2.54H218V14.73a3.31,3.31,0,0,0-3.31-3.3Z" transform="translate(-202.97 -11.43)" fill="currentColor"></path>
    <path d="M222.27,15.87h-18.6a.7.7,0,0,0,0,1.4h18.6a.7.7,0,1,0,0-1.4Z" transform="translate(-202.97 -11.43)" fill="currentColor"></path>
    <path d="M208.62,23.17a.71.71,0,0,0-.7.7v5.52a.7.7,0,0,0,1.4,0V23.87a.7.7,0,0,0-.7-.7Z" transform="translate(-202.97 -11.43)" fill="currentColor"></path>
  </symbol>
  <symbol xmlns="http://www.w3.org/2000/svg" viewBox="0 0 23 24.58" id="ic_edit">
    <path d="M180.73,115.55h-5.51a.7.7,0,0,0-.7.7h0a.7.7,0,0,0,.7.7h5.51a.7.7,0,0,0,.7-.7h0a.7.7,0,0,0-.7-.7Z" transform="translate(-170.88 -111.87)" fill="currentColor"></path>
    <path d="M180.73,119.07h-5.51a.7.7,0,1,0,0,1.4h5.51a.7.7,0,1,0,0-1.4Z" transform="translate(-170.88 -111.87)" fill="currentColor"></path>
    <path d="M180.73,122.59h-5.51a.7.7,0,0,0,0,1.4h5.51a.7.7,0,1,0,0-1.4Z" transform="translate(-170.88 -111.87)" fill="currentColor"></path>
    <path d="M193.29,124.13l-1.42-1.41a2,2,0,0,0-2.82,0l-8.17,8.17-1.33,1.32v3.54a.7.7,0,0,0,.7.7h3.55l1.32-1.32,8.17-8.17A2,2,0,0,0,193.29,124.13Zm-2.41-.42,1.42,1.41a.61.61,0,0,1,0,.85l-1.37,1.37-2.26-2.27,1.37-1.36A.58.58,0,0,1,190.88,123.71ZM181,135.05v-2.26l6.73-6.73,2.26,2.27-6.72,6.72Z" transform="translate(-170.88 -111.87)" fill="currentColor"></path>
    <path d="M172.88,132.07a.6.6,0,0,1-.6-.6v-17.6a.6.6,0,0,1,.6-.6h16a.6.6,0,0,1,.6.6v7.44a3,3,0,0,1,1.4-.14v-7.3a2,2,0,0,0-2-2h-16a2,2,0,0,0-2,2v17.6a2,2,0,0,0,2,2h5.67v-1.4Z" transform="translate(-170.88 -111.87)" fill="currentColor"></path>
  </symbol>
  <symbol xmlns="http://www.w3.org/2000/svg" viewBox="0 0 10.49 8.4" id="ic_email">
    <path d="M187.63,74.94s0,0,0,0a.45.45,0,0,1-.17.11h0l-.1,0h0l-.1,0h0A.45.45,0,0,1,187,75v0l-.45-.41-3.89,3.58a.88.88,0,0,0,.33.06h8.44a.87.87,0,0,0,.32-.06L188,74.64Z" transform="translate(-181.93 -69.77)" fill="currentColor"></path>
    <path d="M182,70.38a1,1,0,0,0-.09.42v6.34a1.23,1.23,0,0,0,.07.39L185.89,74Z" transform="translate(-181.93 -69.77)" fill="currentColor"></path>
    <path d="M191.85,69.89a1,1,0,0,0-.45-.12H183a.93.93,0,0,0-.29,0l4.63,4.26Z" transform="translate(-181.93 -69.77)" fill="currentColor"></path>
    <path d="M192.39,70.56l-3.8,3.5,3.76,3.47a1,1,0,0,0,.07-.39V70.8A1,1,0,0,0,192.39,70.56Z" transform="translate(-181.93 -69.77)" fill="currentColor"></path>
  </symbol>
  <symbol xmlns="http://www.w3.org/2000/svg" viewBox="0 0 20 18.57" id="ic_favorite">
    <path d="M217.62,43.34a4.76,4.76,0,0,1,2.21.52,5.21,5.21,0,0,1,2.46,3.31,5.31,5.31,0,0,1-.66,4.21l-.1.14-.05.09,0,0c-.58.89-3.56,3.64-7.59,7-4-3.39-7-6.14-7.59-7l0,0-.06-.09a1.1,1.1,0,0,0-.09-.14,5.35,5.35,0,0,1-.67-4.21,5.25,5.25,0,0,1,2.47-3.31,4.76,4.76,0,0,1,2.21-.52,7.4,7.4,0,0,1,3.13.79,1.36,1.36,0,0,0,1.24,0,7.36,7.36,0,0,1,3.13-.79m0-1.4a8.63,8.63,0,0,0-3.75.94,8.63,8.63,0,0,0-3.75-.94,6.18,6.18,0,0,0-2.84.67,6.6,6.6,0,0,0-3.19,4.21A6.71,6.71,0,0,0,205,52.3l0-.06.06.09,0,0c.92,1.56,7,6.66,8.84,8.21h0c1.86-1.55,7.92-6.65,8.83-8.21l0,0,.06-.09a.21.21,0,0,1,0,.06,6.72,6.72,0,0,0,1-5.48,6.6,6.6,0,0,0-3.19-4.21,6.18,6.18,0,0,0-2.84-.67Z" transform="translate(-203.87 -41.94)" fill="currentColor"></path>
  </symbol>
  <symbol xmlns="http://www.w3.org/2000/svg" viewBox="0 0 20 18.57" id="ic_favorite2">
    <path d="M202.65,46.82a6.6,6.6,0,0,0-3.19-4.21,7.37,7.37,0,0,0-6.59.27,7.37,7.37,0,0,0-6.59-.27,6.6,6.6,0,0,0-3.19,4.21,6.71,6.71,0,0,0,1,5.51l-.06-.09c.79,1.49,7,6.7,8.87,8.27h0c1.88-1.57,8.08-6.78,8.87-8.27l-.06.09A6.71,6.71,0,0,0,202.65,46.82Z" transform="translate(-182.87 -41.94)" fill="currentColor"></path>
  </symbol>
  <symbol xmlns="http://www.w3.org/2000/svg" viewBox="0 0 19.66 19.66" id="ic_fb">
    <path d="M368.25,238.09h-13.7a3,3,0,0,0-3,3v13.7a3,3,0,0,0,3,3h4V249.6h-2.85v-2.85h2.85v-2.28a3.7,3.7,0,0,1,4-4h2.28v2.85h-1.14c-1.26,0-1.71.26-1.71,1.14v2.28h2.85l-.57,2.85H362v8.15h6.27a3,3,0,0,0,3-3v-13.7A3,3,0,0,0,368.25,238.09Z" transform="translate(-351.57 -238.09)" fill="currentColor"></path>
  </symbol>
  <symbol xmlns="http://www.w3.org/2000/svg" viewBox="0 0 19.66 19.66" id="ic_instagram">
    <ellipse cx="9.83" cy="9.83" rx="3.21" ry="3.17" fill="currentColor"></ellipse>
    <path d="M298.12,238.09h-9.76a4.94,4.94,0,0,0-4.95,4.9v9.86a4.94,4.94,0,0,0,4.95,4.9h9.76a4.94,4.94,0,0,0,4.95-4.9V243A4.94,4.94,0,0,0,298.12,238.09Zm-4.88,15.46a5.63,5.63,0,1,1,5.69-5.63A5.68,5.68,0,0,1,293.24,253.55Zm5.88-10.44a1.44,1.44,0,1,1,1.45-1.43A1.43,1.43,0,0,1,299.12,243.11Z" transform="translate(-283.41 -238.09)" fill="currentColor"></path>
  </symbol>
  <symbol xmlns="http://www.w3.org/2000/svg" viewBox="0 0 14 18.38" id="ic_location">
    <path d="M90.66,55.62a6.84,6.84,0,0,0-4.44-4.44,7.15,7.15,0,0,0-6.37,1A7,7,0,0,0,77,57.84,6.91,6.91,0,0,0,78.4,62L84,69.22,89.6,62A7.06,7.06,0,0,0,90.66,55.62Zm-6.66,6a3.77,3.77,0,1,1,3.77-3.77A3.77,3.77,0,0,1,84,61.61Z" transform="translate(-77 -50.84)" fill="currentColor"></path>
  </symbol>
  <symbol xmlns="http://www.w3.org/2000/svg" xmlns:xlink="http://www.w3.org/1999/xlink" viewBox="0 0 18px 16px" id="ic_menu">
    <path fill-rule="evenodd" fill="currentColor" d="M0.999,0.0 L16.999,0.0 C17.552,0.0 17.999,0.447 17.999,0.999 C17.999,1.552 17.552,1.999 16.999,1.999 L0.999,1.999 C0.447,1.999 0.0,1.552 0.0,0.999 C0.0,0.447 0.447,0.0 0.999,0.0 Z"></path>
    <path fill-rule="evenodd" fill="currentColor" d="M0.999,13.999 L16.999,13.999 C17.552,13.999 17.999,14.447 17.999,14.999 C17.999,15.552 17.552,15.999 16.999,15.999 L0.999,15.999 C0.447,15.999 0.0,15.552 0.0,14.999 C0.0,14.447 0.447,13.999 0.999,13.999 Z"></path>
    <path fill-rule="evenodd" fill="currentColor" d="M0.999,6.999 L16.999,6.999 C17.552,6.999 17.999,7.447 17.999,7.999 C17.999,8.552 17.552,8.999 16.999,8.999 L0.999,8.999 C0.447,8.999 0.0,8.552 0.0,7.999 C0.0,7.447 0.447,6.999 0.999,6.999 Z"></path>
  </symbol>
  <symbol xmlns="http://www.w3.org/2000/svg" viewBox="0 0 39.75 43.7" id="ic_message">
    <path d="M357.14,70.37V94.21a4,4,0,0,0,4,4h4a2.39,2.39,0,0,1,2.39,2.38v7.2a2.27,2.27,0,0,0,1.59,2.22,2.13,2.13,0,0,0,2.38-.8l10-10a2.39,2.39,0,0,1,1.93-1h9.54a4,4,0,0,0,4-4V70.37a4,4,0,0,0-4-4H361.12A4,4,0,0,0,357.14,70.37Zm1.59,0A2.39,2.39,0,0,1,361.12,68h31.79a2.39,2.39,0,0,1,2.39,2.39V94.21a2.39,2.39,0,0,1-2.39,2.39h-9.54a4,4,0,0,0-3.18,1.65l-10,10a.5.5,0,0,1-.62.23.67.67,0,0,1-.46-.7v-7.22a4,4,0,0,0-4-4h-4a2.39,2.39,0,0,1-2.39-2.39Z" transform="translate(-357.14 -66.39)" fill="currentColor"></path>
    <path d="M366.85,77.52h20.33a.8.8,0,0,0,0-1.59H366.85a.8.8,0,0,0,0,1.59Z" transform="translate(-357.14 -66.39)" fill="currentColor"></path>
    <path d="M366.85,83.09H380a.78.78,0,0,0,.75-.8.77.77,0,0,0-.75-.79H366.85a.76.76,0,0,0-.75.79A.77.77,0,0,0,366.85,83.09Z" transform="translate(-357.14 -66.39)" fill="currentColor"></path>
    <path d="M366.85,88.65H384.8a.8.8,0,0,0,0-1.59H366.85a.8.8,0,0,0,0,1.59Z" transform="translate(-357.14 -66.39)" fill="currentColor"></path>
  </symbol>
  <symbol xmlns="http://www.w3.org/2000/svg" viewBox="0 0 12 2" id="ic_minus">
    <rect x="297" y="292" width="2" height="12" transform="translate(-292 299) rotate(-90)" fill="currentColor"></rect>
  </symbol>
  <symbol xmlns="http://www.w3.org/2000/svg" xmlns:xlink="http://www.w3.org/1999/xlink" viewBox="0 0 11px 10px" id="ic_percents">
    <path fill-rule="evenodd" fill="currentColor" d="M4.140,4.266 C4.593,3.777 4.819,3.188 4.819,2.499 C4.819,1.801 4.595,1.210 4.147,0.726 C3.699,0.242 3.124,0.0 2.422,0.0 C1.711,0.0 1.129,0.244 0.676,0.733 C0.223,1.222 0.3,1.810 0.3,2.499 C0.3,3.198 0.220,3.789 0.669,4.273 C1.117,4.757 1.692,4.999 2.393,4.999 C3.104,4.999 3.686,4.755 4.140,4.266 ZM2.481,9.887 L9.963,0.111 L8.517,0.111 L1.34,9.887 L2.481,9.887 ZM10.321,9.266 C10.774,8.777 11.1,8.188 11.1,7.499 C11.1,6.800 10.777,6.209 10.329,5.725 C9.880,5.241 9.306,4.999 8.604,4.999 C7.893,4.999 7.311,5.244 6.858,5.732 C6.405,6.221 6.178,6.810 6.178,7.499 C6.178,8.197 6.402,8.789 6.851,9.272 C7.299,9.757 7.874,9.999 8.575,9.999 C9.286,9.999 9.868,9.754 10.321,9.266 ZM1.619,3.512 C1.404,3.237 1.297,2.900 1.297,2.499 C1.297,2.99 1.397,1.762 1.597,1.487 C1.796,1.212 2.62,1.75 2.393,1.75 C2.715,1.75 2.982,1.212 3.197,1.487 C3.411,1.762 3.518,2.99 3.518,2.499 C3.518,2.900 3.418,3.237 3.219,3.512 C3.19,3.787 2.753,3.924 2.422,3.924 C2.101,3.924 1.833,3.787 1.619,3.512 ZM7.800,8.511 C7.586,8.237 7.479,7.899 7.479,7.499 C7.479,7.99 7.579,6.761 7.779,6.486 C7.978,6.212 8.244,6.74 8.575,6.74 C8.897,6.74 9.164,6.212 9.379,6.486 C9.593,6.761 9.700,7.99 9.700,7.499 C9.700,7.899 9.600,8.237 9.401,8.511 C9.201,8.786 8.935,8.923 8.604,8.923 C8.283,8.923 8.15,8.786 7.800,8.511 Z"></path>
  </symbol>
  <symbol xmlns="http://www.w3.org/2000/svg" viewBox="0 0 14.54 14.89" id="ic_phone">
    <path d="M170.74,59.58l-2.84-2.69a.68.68,0,0,0-.44-.19.78.78,0,0,0-.52.17l-.68.65a1.55,1.55,0,0,1-1.94-.25l-2-2.14a1.31,1.31,0,0,1-.11-1.81c.17-.15.61-.64.79-.79a.77.77,0,0,0,.24-.5.71.71,0,0,0-.18-.51l-2.47-3.25a.76.76,0,0,0-.55-.3.71.71,0,0,0-.6.27l-.05,0c-.6.72-1.88,1.74-1.86,3.44.05,3.51,6.37,10.36,9.43,10.56,1,.06,1.89-.17,3.66-1.6a.71.71,0,0,0,.3-.55A.74.74,0,0,0,170.74,59.58Z" transform="translate(-157.56 -47.41)" fill="currentColor"></path>
    <path d="M172.08,54.9a.54.54,0,0,1-1.05-.1,7.19,7.19,0,0,0-5.18-6.3l-.13,0a.54.54,0,0,1,.29-1l.14,0a8.26,8.26,0,0,1,5.95,7.24A.41.41,0,0,1,172.08,54.9Z" transform="translate(-157.56 -47.41)" fill="currentColor"></path>
    <path d="M169.27,54.67a.53.53,0,0,1-.41.38.54.54,0,0,1-.63-.43,4.45,4.45,0,0,0-2.72-3.32.55.55,0,0,1-.29-.7.53.53,0,0,1,.7-.3,5.57,5.57,0,0,1,3.37,4.12A.52.52,0,0,1,169.27,54.67Z" transform="translate(-157.56 -47.41)" fill="currentColor"></path>
  </symbol>
  <symbol xmlns="http://www.w3.org/2000/svg" viewBox="0 0 12 12" id="ic_plus">
    <rect x="5" width="2" height="12" fill="currentColor"></rect>
    <rect x="317" y="292" width="2" height="12" transform="translate(-292 324) rotate(-90)" fill="currentColor"></rect>
  </symbol>
  <symbol xmlns="http://www.w3.org/2000/svg" viewBox="0 0 23 24.6" id="ic_save">
    <path d="M152.61,125.82a.76.76,0,0,0-1.09,0l-4.59,4.59-2.47-2.47a.76.76,0,0,0-1.09,0,.77.77,0,0,0,0,1.09l3.07,3.07a.73.73,0,0,0,.46.19H147a.75.75,0,0,0,.47-.19l5.18-5.19A.76.76,0,0,0,152.61,125.82Z" transform="translate(-130.88 -111.87)" fill="currentColor"></path>
    <path d="M140.73,115.55h-5.51a.7.7,0,0,0-.7.7h0a.7.7,0,0,0,.7.7h5.51a.7.7,0,0,0,.7-.7h0a.7.7,0,0,0-.7-.7Z" transform="translate(-130.88 -111.87)" fill="currentColor"></path>
    <path d="M140.73,119.07h-5.51a.7.7,0,0,0,0,1.4h5.51a.7.7,0,1,0,0-1.4Z" transform="translate(-130.88 -111.87)" fill="currentColor"></path>
    <path d="M140.73,122.59h-5.51a.7.7,0,1,0,0,1.4h5.51a.7.7,0,1,0,0-1.4Z" transform="translate(-130.88 -111.87)" fill="currentColor"></path>
    <path d="M132.88,132.07a.6.6,0,0,1-.6-.6v-17.6a.6.6,0,0,1,.6-.6h16a.6.6,0,0,1,.6.6V122a8.42,8.42,0,0,1,1.4.63v-8.77a2,2,0,0,0-2-2h-16a2,2,0,0,0-2,2v17.6a2,2,0,0,0,2,2h7.17a7.71,7.71,0,0,1-.64-1.4Z" transform="translate(-130.88 -111.87)" fill="currentColor"></path>
    <path d="M153.54,127.39a2.11,2.11,0,0,1-.19.23l-1,1a4.82,4.82,0,0,1,.08.86,5.46,5.46,0,1,1-1.9-4.12l.33-.33a1.68,1.68,0,0,1,1-.48,6.94,6.94,0,1,0,1.72,2.79Z" transform="translate(-130.88 -111.87)" fill="currentColor"></path>
  </symbol>
  <symbol xmlns="http://www.w3.org/2000/svg" viewBox="0 0 20.75 20.75" id="ic_search">
    <path d="M251.5,31a7,7,0,1,1-7,7,7,7,0,0,1,7-7m0-1.5A8.5,8.5,0,1,0,260,38a8.51,8.51,0,0,0-8.49-8.5Z" transform="translate(-239.24 -29.5)" fill="currentColor"></path>
    <line x1="6.55" y1="14.2" x2="0.75" y2="20" fill="none" stroke="currentColor" stroke-linecap="round" stroke-miterlimit="10" stroke-width="1.5"></line>
  </symbol>
  <symbol xmlns="http://www.w3.org/2000/svg" viewBox="0 0 39.75 31.8" id="ic_subscribe">
    <path d="M440.77,72.59a.76.76,0,0,0-1.09,0L428,84.22,416.35,72.56a.76.76,0,0,0-1.09,0,.77.77,0,0,0,0,1.09l12.26,12.26a.71.71,0,0,0,.46.19l.07,0,.06,0a.71.71,0,0,0,.46-.19L440.8,73.68A.77.77,0,0,0,440.77,72.59Z" transform="translate(-408.14 -66.39)" fill="currentColor"></path>
    <path d="M443.91,66.39H412.12a4,4,0,0,0-4,4V94.21a4,4,0,0,0,4,4h31.79a4,4,0,0,0,4-4V70.37A4,4,0,0,0,443.91,66.39Zm2.39,27.82a2.39,2.39,0,0,1-2.39,2.39H412.12a2.39,2.39,0,0,1-2.39-2.39V70.37A2.39,2.39,0,0,1,412.12,68h31.79a2.39,2.39,0,0,1,2.39,2.39Z" transform="translate(-408.14 -66.39)" fill="currentColor"></path>
  </symbol>
  <symbol xmlns="http://www.w3.org/2000/svg" viewBox="0 0 20 20" id="ic_success">
    <path d="M260,132.6a.76.76,0,0,0-1.09,0L251.5,140l-3.89-3.89a.77.77,0,0,0-1.09,0,.79.79,0,0,0,0,1.1l4.48,4.48a.71.71,0,0,0,.46.19h.13a.75.75,0,0,0,.47-.19l8-8A.77.77,0,0,0,260,132.6Z" transform="translate(-241.5 -129)" fill="currentColor"></path>
    <path d="M260.49,134.65l-1.13,1.13a8.56,8.56,0,1,1-2.08-3l.93-.93a1.58,1.58,0,0,1,.15-.12,10.07,10.07,0,1,0,2.13,2.91Z" transform="translate(-241.5 -129)" fill="currentColor"></path>
  </symbol>
  <symbol xmlns="http://www.w3.org/2000/svg" viewBox="0 0 24.47 20.52" id="ic_telegram">
    <path d="M174.54,45.52l-3.69,17.42c-.28,1.22-1,1.53-2,1l-5.63-4.14-2.71,2.61a1.41,1.41,0,0,1-1.13.55l.4-5.73,10.43-9.42c.45-.41-.1-.63-.71-.23l-12.89,8.12L151,53.91c-1.2-.38-1.23-1.21.25-1.78L173,43.76C174,43.39,174.87,44,174.54,45.52Z" transform="translate(-150.14 -43.65)" fill="currentColor"></path>
  </symbol>
  <symbol xmlns="http://www.w3.org/2000/svg" viewBox="0 0 20 19.97" id="ic_time">
    <path d="M89.74,26.77a10,10,0,1,0,10,10A10,10,0,0,0,89.74,26.77Zm6.14,10.49H89.74a.76.76,0,0,1-.75-.75V30.37a.75.75,0,0,1,1.5,0v5.39h5.39a.75.75,0,0,1,0,1.5Z" transform="translate(-79.74 -26.77)" fill="currentColor"></path>
  </symbol>
  <symbol xmlns="http://www.w3.org/2000/svg" viewBox="0 0 26.74 16.03" id="ic_vk">
    <path d="M398.62,255.93c.89,0,.89-1.29.89-1.78a1.91,1.91,0,0,1,1.78-1.78c.89,0,2.41,1.52,3.56,2.67.89.89.89.89,1.78.89h2.67a1.8,1.8,0,0,0,1.78-1.78c0-.56-.61-1.5-2.67-3.56-1.78-1.79-2.69-.87,0-4.45,1.64-2.19,2.83-4.17,2.63-4.74s-4.76-1.42-5.3-.61a33.27,33.27,0,0,0-2.67,4.45c-.89,1.79-1,2.67-1.78,2.67s-.89-1.72-.89-2.67c0-2.94.42-5-.89-5.34h-2.67a5.2,5.2,0,0,0-2.68.89s-1.1.87-.88.89,1.78-.36,1.78.89v1.79s0,3.55-.9,3.55-2.66-3.55-4.44-6.23c-.7-1-.89-.89-1.79-.89s-1.77,0-2.67,0-1,.57-.88.85c1.77,4.46,3.05,7.25,6.44,10.77,3.1,3.23,5.17,3.4,6.91,3.48C398.17,256,397.73,255.93,398.62,255.93Z" transform="translate(-384.34 -239.9)" fill="currentColor"></path>
  </symbol>
  <symbol xmlns="http://www.w3.org/2000/svg" viewBox="0 0 19.9 20" id="ic_whatsapp">
    <path d="M234.84,48a9.82,9.82,0,0,0-7-2.91,9.92,9.92,0,0,0-8.59,14.87l-1.41,5.13,5.26-1.38a9.84,9.84,0,0,0,4.73,1.21h0a9.91,9.91,0,0,0,7-16.92ZM232.67,58.5A2.52,2.52,0,0,1,231,59.68a3.44,3.44,0,0,1-1.56-.1,12.1,12.1,0,0,1-1.41-.52,11.06,11.06,0,0,1-4.23-3.74,4.82,4.82,0,0,1-1-2.56,2.78,2.78,0,0,1,.87-2.07.92.92,0,0,1,.66-.31h.47c.15,0,.36-.06.56.43s.7,1.71.76,1.84a.41.41,0,0,1,0,.43,1.52,1.52,0,0,1-.24.41c-.13.15-.26.33-.38.44s-.25.25-.1.5a7.43,7.43,0,0,0,1.37,1.72,7.19,7.19,0,0,0,2,1.23c.25.12.4.1.54-.07s.62-.72.79-1,.33-.2.55-.12,1.45.68,1.69.81.42.18.48.28A2.08,2.08,0,0,1,232.67,58.5Z" transform="translate(-217.83 -45.05)" fill="currentColor" fill-rule="evenodd"></path>
  </symbol>
  <symbol xmlns="http://www.w3.org/2000/svg" viewBox="0 0 29.44 29.44" id="ic_zoom">
    <path d="M297.5,22.31A10.69,10.69,0,1,1,286.81,33,10.71,10.71,0,0,1,297.5,22.31m0-1.5A12.19,12.19,0,1,0,309.69,33,12.19,12.19,0,0,0,297.5,20.81Z" transform="translate(-280.24 -20.81)" fill="currentColor"></path>
    <line x1="9.07" y1="20.37" x2="0.75" y2="28.69" fill="none" stroke="currentColor" stroke-linecap="round" stroke-miterlimit="10" stroke-width="1.5"></line>
    <polygon points="18 6.19 16.5 6.19 16.5 11.44 11.26 11.44 11.26 12.94 16.5 12.94 16.5 18.19 18 18.19 18 12.94 23.25 12.94 23.25 11.44 18 11.44 18 6.19 18 6.19" fill="currentColor"></polygon>
  </symbol>
</svg>